HIERARCHY
ROOT Hips
{
	OFFSET -14.64140 90.27770 -84.91600
	CHANNELS 6 Xposition Yposition Zposition Zrotation Xrotation Yrotation
	JOINT Spine
	{
		OFFSET 0.00000 13.20850 -1.60436
		CHANNELS 3 Zrotation Xrotation Yrotation
		JOINT Spine1
		{
			OFFSET 0.00000 8.61716 0.00000
			CHANNELS 3 Zrotation Xrotation Yrotation
			JOINT Spine2
			{
				OFFSET 0.00000 8.61717 0.00000
				CHANNELS 3 Zrotation Xrotation Yrotation
				JOINT Spine3
				{
					OFFSET 0.00000 8.61717 0.00000
					CHANNELS 3 Zrotation Xrotation Yrotation
					JOINT Neck
					{
						OFFSET 0.00000 11.07920 1.10792
						CHANNELS 3 Zrotation Xrotation Yrotation
						JOINT Neck1
						{
							OFFSET 0.00000 7.08032 0.00000
							CHANNELS 3 Zrotation Xrotation Yrotation
							JOINT Head
							{
								OFFSET 0.00000 7.08031 0.00000
								CHANNELS 3 Zrotation Xrotation Yrotation
								End site
								{
									OFFSET 0.00000 0.00000 0.00000
								}
							}
						}
					}
					JOINT RightShoulder
					{
						OFFSET -0.01000 7.91373 5.19711
						CHANNELS 3 Zrotation Xrotation Yrotation
						JOINT RightArm
						{
							OFFSET -18.41580 0.00000 0.00000
							CHANNELS 3 Zrotation Xrotation Yrotation
							JOINT RightForeArm
							{
								OFFSET -29.11090 0.00000 0.00000
								CHANNELS 3 Zrotation Xrotation Yrotation
								JOINT RightHand
								{
									OFFSET -24.65040 0.00000 0.00000
									CHANNELS 3 Zrotation Xrotation Yrotation
									JOINT RightHandThumb1
									{
										OFFSET -5.35114 -0.85590 3.97906
										CHANNELS 3 Zrotation Xrotation Yrotation
										JOINT RightHandThumb2
										{
											OFFSET -4.52789 0.00000 0.00000
											CHANNELS 3 Zrotation Xrotation Yrotation
											JOINT RightHandThumb3
											{
												OFFSET -2.46976 0.00000 0.00000
												CHANNELS 3 Zrotation Xrotation Yrotation
												End site
												{
													OFFSET 0.00000 0.00000 0.00000
												}
											}
										}
									}
									JOINT RightHandIndex1
									{
										OFFSET -14.26970 0.00000 2.88139
										CHANNELS 3 Zrotation Xrotation Yrotation
										JOINT RightHandIndex2
										{
											OFFSET -5.48836 0.00000 0.00000
											CHANNELS 3 Zrotation Xrotation Yrotation
											JOINT RightHandIndex3
											{
												OFFSET -3.01859 0.00000 0.00000
												CHANNELS 3 Zrotation Xrotation Yrotation
												End site
												{
													OFFSET 0.00000 0.00000 0.00000
												}
											}
										}
									}
									JOINT RightHandMiddle1
									{
										OFFSET -14.26970 0.00000 -0.09147
										CHANNELS 3 Zrotation Xrotation Yrotation
										JOINT RightHandMiddle2
										{
											OFFSET -6.17441 0.00000 0.00000
											CHANNELS 3 Zrotation Xrotation Yrotation
											JOINT RightHandMiddle3
											{
												OFFSET -3.56743 0.00000 0.00000
												CHANNELS 3 Zrotation Xrotation Yrotation
												End site
												{
													OFFSET 0.00000 0.00000 0.00000
												}
											}
										}
									}
									JOINT RightHandRing1
									{
										OFFSET -12.69180 0.00000 -3.06433
										CHANNELS 3 Zrotation Xrotation Yrotation
										JOINT RightHandRing2
										{
											OFFSET -5.62556 0.00000 0.00000
											CHANNELS 3 Zrotation Xrotation Yrotation
											JOINT RightHandRing3
											{
												OFFSET -3.56744 0.00000 0.00000
												CHANNELS 3 Zrotation Xrotation Yrotation
												End site
												{
													OFFSET 0.00000 0.00000 0.00000
												}
											}
										}
									}
									JOINT RightHandPinky1
									{
										OFFSET -11.11390 0.00000 -6.03719
										CHANNELS 3 Zrotation Xrotation Yrotation
										JOINT RightHandPinky2
										{
											OFFSET -4.52789 0.00000 0.00000
											CHANNELS 3 Zrotation Xrotation Yrotation
											JOINT RightHandPinky3
											{
												OFFSET -2.46976 0.00000 0.00000
												CHANNELS 3 Zrotation Xrotation Yrotation
												End site
												{
													OFFSET 0.00000 0.00000 0.00000
												}
											}
										}
									}
								}
							}
						}
					}
					JOINT LeftShoulder
					{
						OFFSET 0.01000 7.91373 5.19711
						CHANNELS 3 Zrotation Xrotation Yrotation
						JOINT LeftArm
						{
							OFFSET 18.41580 0.00000 0.00000
							CHANNELS 3 Zrotation Xrotation Yrotation
							JOINT LeftForeArm
							{
								OFFSET 29.11090 0.00000 0.00000
								CHANNELS 3 Zrotation Xrotation Yrotation
								JOINT LeftHand
								{
									OFFSET 24.65040 0.00000 0.00000
									CHANNELS 3 Zrotation Xrotation Yrotation
									JOINT LeftHandThumb1
									{
										OFFSET 5.35114 -0.85590 3.97906
										CHANNELS 3 Zrotation Xrotation Yrotation
										JOINT LeftHandThumb2
										{
											OFFSET 4.52789 0.00000 0.00000
											CHANNELS 3 Zrotation Xrotation Yrotation
											JOINT LeftHandThumb3
											{
												OFFSET 2.46977 0.00000 0.00000
												CHANNELS 3 Zrotation Xrotation Yrotation
												End site
												{
													OFFSET 0.00000 0.00000 0.00000
												}
											}
										}
									}
									JOINT LeftHandIndex1
									{
										OFFSET 14.26970 0.00000 2.88139
										CHANNELS 3 Zrotation Xrotation Yrotation
										JOINT LeftHandIndex2
										{
											OFFSET 5.48836 0.00000 0.00000
											CHANNELS 3 Zrotation Xrotation Yrotation
											JOINT LeftHandIndex3
											{
												OFFSET 3.01859 0.00000 0.00000
												CHANNELS 3 Zrotation Xrotation Yrotation
												End site
												{
													OFFSET 0.00000 0.00000 0.00000
												}
											}
										}
									}
									JOINT LeftHandMiddle1
									{
										OFFSET 14.26970 0.00000 -0.09147
										CHANNELS 3 Zrotation Xrotation Yrotation
										JOINT LeftHandMiddle2
										{
											OFFSET 6.17440 0.00000 0.00000
											CHANNELS 3 Zrotation Xrotation Yrotation
											JOINT LeftHandMiddle3
											{
												OFFSET 3.56744 0.00000 0.00000
												CHANNELS 3 Zrotation Xrotation Yrotation
												End site
												{
													OFFSET 0.00000 0.00000 0.00000
												}
											}
										}
									}
									JOINT LeftHandRing1
									{
										OFFSET 12.69180 0.00000 -3.06433
										CHANNELS 3 Zrotation Xrotation Yrotation
										JOINT LeftHandRing2
										{
											OFFSET 5.62556 0.00000 0.00000
											CHANNELS 3 Zrotation Xrotation Yrotation
											JOINT LeftHandRing3
											{
												OFFSET 3.56744 0.00000 0.00000
												CHANNELS 3 Zrotation Xrotation Yrotation
												End site
												{
													OFFSET 0.00000 0.00000 0.00000
												}
											}
										}
									}
									JOINT LeftHandPinky1
									{
										OFFSET 11.11390 0.00000 -6.03719
										CHANNELS 3 Zrotation Xrotation Yrotation
										JOINT LeftHandPinky2
										{
											OFFSET 4.52789 0.00000 0.00000
											CHANNELS 3 Zrotation Xrotation Yrotation
											JOINT LeftHandPinky3
											{
												OFFSET 2.46976 0.00000 0.00000
												CHANNELS 3 Zrotation Xrotation Yrotation
												End site
												{
													OFFSET 0.00000 0.00000 0.00000
												}
											}
										}
									}
								}
							}
						}
					}
					JOINT pCube4
					{
						OFFSET 0.00000 10.91090 1.10792
						CHANNELS 3 Zrotation Xrotation Yrotation
						End site
						{
							OFFSET 0.00000 0.00000 0.00000
						}
					}
				}
			}
		}
	}
	JOINT RightUpLeg
	{
		OFFSET -9.98441 0.00000 0.00000
		CHANNELS 3 Zrotation Xrotation Yrotation
		JOINT RightLeg
		{
			OFFSET 0.00000 -42.11790 0.00000
			CHANNELS 3 Zrotation Xrotation Yrotation
			JOINT RightFoot
			{
				OFFSET 0.00000 -45.00020 -0.00001
				CHANNELS 3 Zrotation Xrotation Yrotation
				JOINT RightForeFoot
				{
					OFFSET 0.00000 -3.74820 0.00000
					CHANNELS 3 Zrotation Xrotation Yrotation
					JOINT RightToeBase
					{
						OFFSET 0.00000 0.06325 14.43120
						CHANNELS 3 Zrotation Xrotation Yrotation
						End site
						{
							OFFSET 0.00000 0.00000 0.00000
						}
					}
				}
			}
		}
	}
	JOINT LeftUpLeg
	{
		OFFSET 9.98441 0.00000 0.00000
		CHANNELS 3 Zrotation Xrotation Yrotation
		JOINT LeftLeg
		{
			OFFSET 0.00000 -42.11800 0.00000
			CHANNELS 3 Zrotation Xrotation Yrotation
			JOINT LeftFoot
			{
				OFFSET 0.00000 -45.00070 0.00000
				CHANNELS 3 Zrotation Xrotation Yrotation
				JOINT LeftForeFoot
				{
					OFFSET 0.00000 -3.74824 0.00000
					CHANNELS 3 Zrotation Xrotation Yrotation
					JOINT LeftToeBase
					{
						OFFSET 0.00000 0.06325 14.43110
						CHANNELS 3 Zrotation Xrotation Yrotation
						End site
						{
							OFFSET 0.00000 0.00000 0.00000
						}
					}
				}
			}
		}
	}
}
MOTION
Frames: 4
Frame Time: 0.050000
0.020090413978475063 0.0015227071112737989 -0.028509802407181723 0.022963834192991372 0.00443239401557843 -0.008798640067088087 5.119786537165149 3.1556507380781866 -2.224861831250638 -0.8855169596521328 3.399344714381991 0.40363201185960623 -0.6938096680879807 -0.9277904345207763 0.7852270796780166 -0.5322667537507217 -0.2937058841229473 -0.2929538110529395 0.2719221599554 11.379347456781863 -1.5961805052619327 0.40580211348449047 -0.6800656379588325 -3.9527171865275745 1.0879010971074463 -17.41074743365496 -0.3578877313159659 -11.742668423438058 4.013674774342129 -16.540789421095532 80.75632500445803 -1.5995775909799763 13.935294261485947 23.382136050792738 1.4481535196799729 83.35179671602836 9.695151023736992 -0.39764792478909633 -5.350228553117729 4.554956665135444 -0.1736390351758589 -1.588194282200503 -0.030100964096858775 0.04596674533250065 -56.256257762761045 0.006084469495959729 0.0384017703697965 -56.234028658554735 -38.80694974504246 -0.004228718396129916 0.027983887585157873 -0.019092622082696124 0.03306324697755264 0.04844239653508617 0.012764988509919934 -0.01665501600398888 0.005790140081112552 -36.684563109939106 0.016507812640508324 -0.00904944314263982 -0.03468819156086103 -0.04726672984934656 -0.01679603690148868 -0.010407230679860336 0.008471281378952006 -0.010145323392041728 -19.78026951263524 0.009500143604153442 0.045000636275898516 -0.002731106249663509 0.036912922078804644 0.045573281841069804 0.0014159107029431313 -0.025630499123586118 0.007953986658477838 24.037117004002813 -0.017649771420354312 0.01234558612108978 28.866806945021214 -0.025357488027018968 0.026682036298506896 28.865829817703357 -0.0197213990452459 -0.02202289422607893 10.802532020070865 2.5527604270772706 13.416797332863231 -79.01313126331239 17.686577637636645 -13.273992734701604 -69.46975445215702 11.797316537816576 -95.37723218571288 -8.087832207709855 -9.378458269140149 6.023132286759636 -0.4309566583267544 0.055069569016970105 -8.096346196060482 -0.010765542694237242 0.04990264734756916 44.541332325803566 0.04635714252422445 -0.027204604947179998 44.540088225069546 12.494610972379144 0.005011961176701032 -0.028610179835533208 -0.037982996836376216 -0.04810836026493497 -0.00845786085863242 0.009955066828804702 0.007537036329165575 -0.024075335326214385 11.099983352118272 0.038649796867483495 0.028313419863423294 -0.021026386110090365 -0.00940118218149372 0.014046822409433658 -0.024700344010485265 0.016060012650199927 -0.035891026726140786 4.812574136711342 0.01108509752656007 -0.025906898116483452 -0.03239453965691316 -0.028950905958011315 -0.0042467904131022905 -0.022604208817211154 0.04358321793074148 -0.03458449245600352 -5.579950940919167 -0.026637096417901907 -0.04418702521862979 -6.74001184147984 0.02997568214223269 0.015421424472645863 -6.736395053946562 0.006389022065056817 0.038328495315019806 0.023731339528877564 0.04537093147948323 0.025746702261895717 8.008356939774503 3.4499168760319066 -19.182542155716217 0.015216271404769348 10.402936661253099 0.027494377749804885 -5.665600769811681 -15.626953436463417 3.1498311063948172 0.036053371551070496 -0.006151220419897734 0.03306774284476333 0.006314150110348361 4.723517757215839 0.0269532789787158 12.426279112864592 -8.215504275925598 6.848531363614061 -0.0332607219297836 46.34851582063908 -0.018949070635030034 -4.351865939643455 -14.797310721389508 -3.7986996575743794 0.006697441648525019 0.03080410691315747 -0.023064183224712504 0.04520311319477513 -10.710575396672688 -0.02060276893190946 
0.020092214185675906 -0.0033665692212965673 -0.00595860549790664 -0.027963294761780527 0.02936750425320163 0.0024592713922941597 5.145321591016404 3.2952723259450676 -2.195861371065814 -0.9064986870097611 3.4036835403274988 0.4206103912954276 -0.6831107221577923 -0.9290929613188362 0.7239466500254068 -0.4528184954215772 -0.3176673935705565 -0.2973533107365554 0.3265225661301585 11.232808740492084 -1.6702714777258625 0.32009803514634927 -0.7792012710377202 -4.178879941730881 1.0849803122125654 -17.47931303102847 -0.4340466292446299 -11.701450322853804 3.9697270873427737 -16.634609559457058 81.10819273928327 -2.2229670866563396 13.059955189272287 23.544690738894154 1.5379866022994269 82.2475827482868 9.86249602380472 -0.4402094834195482 -5.541470496018463 4.50021741557129 -0.09234024338652182 -1.584376169711986 -0.022859605463618194 -0.04060859259854612 -56.252387212402496 -0.016871050224041024 0.0034056934678244307 -56.251932237713 -38.73535939897357 -0.01947780715362329 0.024435658071064122 -0.022088230104150702 -0.008151960083111542 0.001467754087216305 0.04238724630542456 -0.018397459941525165 -0.04633689130201596 -36.70510149709361 -0.020407209078277155 -0.006153536741985423 0.002312179086009944 0.041675635297213964 -0.029825969110491107 -0.04265628937392172 -0.017145235096945138 -0.029555285480417196 -19.803269400900003 0.01279976044146945 -0.018973917524264954 -0.011529645272845794 0.04432867193937475 0.019491056639437968 -0.016861681145496757 -0.032419059800706834 -0.0002863867966057562 24.031104878429282 -0.026569323884814637 0.027198854656430772 28.85576148350403 -0.04522600088335842 0.029800403239668042 28.89830944240529 0.0103283140021613 0.027337795972848702 10.726285034410592 2.5699079301163916 13.459385694830463 -79.14617033951606 17.295583766745835 -12.968760291308051 -71.65766431587042 11.904830395592668 -96.1184711047982 -8.103748079581594 -9.769005811779175 6.191329162203031 -0.4875895632066117 0.08088358866607849 -8.158971226085379 -0.03075635627348335 0.034027684652532045 44.58589040263274 -0.010533030156736426 0.033763486382632185 44.5330858137986 12.455456944215983 -0.033738361592038184 -0.023808075529781956 -0.0010965357420219374 0.009307894308785982 -0.04663073221535824 -0.005507167215811224 0.02363636559935023 0.013811699830478285 11.066859894193204 0.001802884275785815 0.007974853149522482 -0.0174844290137377 0.012888233475967561 -0.011871063598106866 -0.004055914140902699 0.03498395097408427 0.044095546449936435 4.778883790849101 -0.011987725253502696 -0.03178229162769544 0.00880565469161894 0.003986612202733818 0.04792507882153631 0.029202768926598212 0.028424907351893177 0.0005391449771582393 -5.603887314370771 -0.007018910006068888 0.03712249567389075 -6.734217610773009 -0.041271240724548325 0.011949231998691735 -6.695958784346854 -0.034890273477618056 0.036412026558008445 0.012863001492945414 0.018402080983377776 -0.04125362835744885 8.010992354930913 3.526906450359329 -19.201378652857947 -0.023657810213933456 10.377209836479105 0.0065453980679830714 -5.622578515389776 -15.630115311829085 3.1863767164768215 0.023730381470613834 0.003734493402229698 -0.010047971820279934 0.01749811444968553 4.716427918441902 -0.03434052244846748 12.420841761559354 -8.223853780260212 6.882461696661828 0.020054520914252427 46.39943082437037 -0.03279386874183864 -4.37268976154767 -14.735930556075266 -3.8819048901735513 -0.015578815760513284 0.007123612901616597 0.041623596637891884 -0.0061196629992651425 -10.722123950185692 -0.01378195754492155 
-0.024392010031076924 0.042334380235646646 0.014149185134057938 0.02022591858894118 -0.0020847681746024127 -0.022177372098299376 5.198768115216908 3.172090128237424 -2.2319359119041704 -0.8770519192425467 3.4001528084898998 0.45677519383344595 -0.7325562235691806 -0.8782655047448592 0.7219529913174727 -0.4589508941099081 -0.30631217801760907 -0.36748787988278814 0.2671540854481987 11.142103704103322 -1.7199191803785803 0.3571481590891554 -0.7255132253352469 -4.211909352710595 1.0801843535421713 -17.43880513684636 -0.36706425629955963 -11.50932870593444 3.911818919197806 -16.71520121448153 81.36495083916765 -2.047204146262948 11.666730741687541 23.560976895213134 1.620944125851304 81.85984265061752 9.990971529901175 -0.4241444696180429 -5.720644748790121 4.526946003782027 -0.1227738159480577 -1.5790667056650154 -0.02022446228559322 -0.018439076428895952 -56.18938091460839 -0.015974130606864454 0.0238466278887355 -56.24259211985634 -38.73907922240965 0.02396464977641673 -0.03556564347458026 0.030748590348227398 0.011294938486734756 -0.04982243311742548 0.03171183954683319 0.028017025630503175 0.03962206489414389 -36.74120522049418 -0.03147725127321799 0.020879887988756944 0.03486855203621513 -0.021560817142144542 0.016199456378952762 0.030827198013923633 0.023775693128567334 0.039445759855402385 -19.738373763444145 0.009503100335215198 -0.019710065650319086 0.014987503078845148 -0.009408766524631698 0.016226354876214273 -0.03876636468028851 -0.0006502187353258628 -0.03205855025209435 24.04416025915408 -0.008005124796141077 0.013081154085882592 28.88873204524164 0.00333372560302263 0.030055976401570463 28.911475712676527 0.004645730702764692 0.006411106820613698 10.596093589267717 2.540610527390848 13.510858200231441 -79.33696726326227 17.14923159800519 -12.290977786608897 -73.97985719674607 11.683071145627116 -97.33630353032648 -8.576663106879838 -10.498105232072984 6.549523220882468 -0.507866114273083 0.06207230638184537 -8.160647148523863 0.036352456415550675 0.019270763521500364 44.59441866830208 -0.001726375135364597 0.031421503463708554 44.5185083058141 12.442484784643055 -0.009462943166502409 0.04524579699195116 -0.020162851037095295 -0.02200335625140831 -0.013915815485209938 0.02529834628190324 0.007053818768125881 -0.04220645506515755 11.142251169069821 0.00672666062637891 0.04388175976203016 0.027477614597762202 -0.0022250233770797437 0.017754177647972044 0.0005375222067643883 0.013458762403403494 0.01058239610844007 4.775580812186622 0.004808288667985926 -0.04126350239145947 0.006044987646662837 0.010176608190292228 0.027034354416429304 -0.005375995851675308 0.02528574965274114 0.02981383345696466 -5.576598025634595 0.04539476430733559 -0.011470592430827818 -6.7358089876257825 0.007338400571026224 -0.012934173939493476 -6.74929531432141 0.02658978573402633 0.011527224413587304 0.03764589104238661 -0.02694553797053274 0.047054635915078136 8.027571665235197 3.503147140917165 -19.183787830376627 -0.0009307908640340334 10.36568282649402 -0.03076663147585351 -5.609225687931899 -15.616995003778253 3.2312625178683128 0.03153255236795016 0.04294226394940214 0.030790978912630988 0.023585288451057944 4.742134087145452 0.03487334774263843 12.432448819496017 -8.257056781910588 6.873288506129565 0.03746949986588212 46.335901219025914 0.017770397725722243 -4.33675152853571 -14.776780707538965 -3.8392253312706663 0.0411551586440033 -0.0061635831574201215 0.030631517762906797 -0.028620939523914864 -10.772396284480417 0.002975318235829693 
0.03263601878436071 0.02751593748554104 0.010376523317727707 -0.020192685609899817 -0.010576389824909313 -0.04827764612865082 5.282950394240987 3.055843972730329 -2.229720412167682 -0.8819443059938834 3.403793256652244 0.4574610408146733 -0.7405017512374101 -0.8933677156450853 0.6456495354444111 -0.38755250448866024 -0.3198888552047827 -0.2860206087467871 0.2527174356937277 11.145699889101872 -1.6971763064705019 0.31688851785757405 -0.7495034829722468 -4.063844643574364 1.0908554852915222 -17.43547334266976 -0.39314615504890277 -11.341010908439847 3.887299780590018 -17.04374033860664 81.9878375320344 -1.9361931150662883 9.632930692846092 22.944709559781053 1.3232632597290677 81.7096805550551 9.670826550979845 -0.49882296406028304 -5.732371330474903 4.518704826985848 -0.11089363364514042 -1.5478198902415943 -0.033143984826369585 0.045705503794453775 -56.18842633749388 -0.03323061918877146 -0.03808696931319791 -56.208045379583716 -38.79649877593637 -0.038683921273556535 0.02293077337026312 -0.014840748773453274 -0.001462727621040824 -0.013494007634366917 0.001872949774889515 0.0014571397608754606 0.004687641635767842 -36.703241763664806 -0.0022208017032626834 -0.010357417684356647 -0.046137953520476005 -0.028118467151102493 0.017861140786737437 0.005256745070554159 -0.02081487954983198 -0.0450460592756382 -19.744901751772534 0.028361546505976193 -0.005127138258686117 -0.021840467579286215 0.01139615884551395 0.005180013227627262 -0.014506688650633438 0.045045614941132184 -0.017462076288267223 24.077930640013903 0.016852417820672778 -0.004553808660646665 28.868225568817817 0.04274495016395347 0.028154941062108443 28.895867837433563 0.007150849829965294 -0.022508032905344498 10.666411288397523 2.512056482519398 13.833756435485402 -79.76595807600766 16.216605366230688 -11.298147218234735 -76.73989418046583 11.12731688497695 -98.68127535480349 -8.733673865744635 -11.20868396626152 6.752062774707013 -0.49548909876952835 0.08391952739910084 -8.0955239990902 -0.017201343350728177 0.01849320837888318 44.5429240592879 0.045522423369335874 -0.029948917134395566 44.55287818241139 12.470193850924392 0.0060437418180212706 -0.010533820452943491 -0.02631149026280101 -0.04589833836480786 -0.04073069018109643 -0.03403350449749213 -0.03915831072970069 0.04851464085544067 11.136939776165864 0.04194262496976599 -0.010938263221981938 -0.03619660325974934 -0.02791386442424216 -0.0434553769505797 0.048895517976961636 0.03481105151827336 -0.017991440155433316 4.7746643276381695 -0.017169487864558148 -0.032291805320067736 0.016327457081229593 -0.018241071927844202 -0.010399357313008197 0.045534072581236464 -0.04249787579963192 -0.02044672668055763 -5.6076715090882745 0.006003822611745917 0.0004834789132132178 -6.7131991459426965 0.034635028369482394 0.03777371689405591 -6.6870686677547235 -0.01815185933508833 0.026539614329408448 -0.010331732016880655 0.0139771845138818 -0.03516717313895427 8.045591296285144 3.525833708870378 -19.264784801941136 0.015684865378974653 10.442569338751094 0.0398928045382346 -5.6058641032897105 -15.686360138795775 3.158851051602185 0.03686562198354176 -0.04081346208665408 -0.017729591086585728 0.00445241374158111 4.716556074176972 -0.013292633246005704 12.440877040971356 -8.204529859548382 6.907416408244432 0.029848954511765217 46.35768048704057 0.012895468039835396 -4.341644168223329 -14.78821088523171 -3.8399529120930183 -0.02355467663377801 0.04790105154355846 -0.04600476102224986 0.04567554943424411 -10.783463431710883 0.04714209304487506 
